<svg width="11" height="13" viewBox="0 0 11 13" fill="none" xmlns="http://www.w3.org/2000/svg">
<path fill-rule="evenodd" clip-rule="evenodd" d="M5.49997 0C5.69888 0 5.88965 0.0790178 6.0303 0.21967C6.17095 0.360322 6.24997 0.551088 6.24997 0.75V9.4395L9.46897 6.219C9.5387 6.14927 9.62149 6.09395 9.7126 6.05621C9.80371 6.01848 9.90136 5.99905 9.99997 5.99905C10.0986 5.99905 10.1962 6.01848 10.2873 6.05621C10.3785 6.09395 10.4612 6.14927 10.531 6.219C10.6007 6.28873 10.656 6.37152 10.6938 6.46262C10.7315 6.55373 10.7509 6.65138 10.7509 6.75C10.7509 6.84862 10.7315 6.94627 10.6938 7.03738C10.656 7.12848 10.6007 7.21127 10.531 7.281L6.03097 11.781C5.9613 11.8508 5.87854 11.9063 5.78742 11.9441C5.6963 11.9819 5.59862 12.0013 5.49997 12.0013C5.40132 12.0013 5.30364 11.9819 5.21252 11.9441C5.1214 11.9063 5.03864 11.8508 4.96897 11.781L0.468971 7.281C0.399239 7.21127 0.343925 7.12848 0.306186 7.03738C0.268447 6.94627 0.249023 6.84862 0.249023 6.75C0.249023 6.65138 0.268447 6.55373 0.306186 6.46262C0.343925 6.37152 0.399239 6.28873 0.468971 6.219C0.609801 6.07817 0.800808 5.99905 0.999971 5.99905C1.09859 5.99905 1.19624 6.01848 1.28735 6.05621C1.37846 6.09395 1.46124 6.14927 1.53097 6.219L4.74997 9.4395V0.75C4.74997 0.551088 4.82899 0.360322 4.96964 0.21967C5.11029 0.0790178 5.30106 0 5.49997 0Z" fill="white"/>
</svg>
