<svg width="22" height="17" viewBox="0 0 22 17" fill="none" xmlns="http://www.w3.org/2000/svg">
<path d="M7 8C8.06087 8 9.07828 7.57857 9.82843 6.82843C10.5786 6.07828 11 5.06087 11 4C11 2.93913 10.5786 1.92172 9.82843 1.17157C9.07828 0.421427 8.06087 0 7 0C5.93913 0 4.92172 0.421427 4.17157 1.17157C3.42143 1.92172 3 2.93913 3 4C3 5.06087 3.42143 6.07828 4.17157 6.82843C4.92172 7.57857 5.93913 8 7 8ZM16 8C16.7956 8 17.5587 7.68393 18.1213 7.12132C18.6839 6.55871 19 5.79565 19 5C19 4.20435 18.6839 3.44129 18.1213 2.87868C17.5587 2.31607 16.7956 2 16 2C15.2044 2 14.4413 2.31607 13.8787 2.87868C13.3161 3.44129 13 4.20435 13 5C13 5.79565 13.3161 6.55871 13.8787 7.12132C14.4413 7.68393 15.2044 8 16 8ZM2.375 9.5C1.87772 9.5 1.40081 9.69754 1.04917 10.0492C0.697544 10.4008 0.5 10.8777 0.5 11.375V12C0.5 12 0.5 16.5 7 16.5C13.5 16.5 13.5 12 13.5 12V11.375C13.5 10.8777 13.3025 10.4008 12.9508 10.0492C12.5992 9.69754 12.1223 9.5 11.625 9.5H2.375ZM13.337 15.0445C14.025 15.3235 14.8965 15.5 15.9995 15.5C21.2495 15.5 21.2495 11.5 21.2495 11.5V11.375C21.2495 10.8778 21.052 10.401 20.7005 10.0494C20.349 9.69774 19.8722 9.50013 19.375 9.5H13.8035C14.2531 10.0211 14.5 10.6867 14.499 11.375V12.0225L14.4985 12.051C14.4956 12.1481 14.4889 12.245 14.4785 12.3415C14.4537 12.5647 14.4134 12.7859 14.358 13.0035C14.1687 13.7494 13.8204 14.4457 13.337 15.0445Z" fill="#777574"/>
</svg>
