<svg width="20" height="15" viewBox="0 0 20 15" fill="none" xmlns="http://www.w3.org/2000/svg">
<path d="M12.9998 8.75379H3.41399L6.70657 12.8826C6.88619 13.1197 6.98485 13.4353 6.98151 13.7623C6.97818 14.0892 6.8731 14.4016 6.68869 14.6328C6.50429 14.864 6.25515 14.9957 5.99437 14.9999C5.7336 15.0041 5.48185 14.8804 5.29278 14.6552L0.292668 8.38626C0.105269 8.15117 0 7.83237 0 7.5C0 7.16762 0.105269 6.84884 0.292668 6.61373L5.29278 0.344818C5.48185 0.119613 5.7336 -0.00408308 5.99437 0.00010288C6.25515 0.00428884 6.50429 0.136028 6.68869 0.367227C6.8731 0.598426 6.97818 0.910791 6.98151 1.23773C6.98485 1.56466 6.88619 1.88032 6.70657 2.11735L3.41399 6.24622H12.9998H19C19.2652 6.24622 19.5196 6.3783 19.7071 6.61345C19.8947 6.84857 20 7.16747 20 7.5C20 7.83252 19.8947 8.15142 19.7071 8.38656C19.5196 8.62169 19.2652 8.75379 19 8.75379H12.9998Z" fill="#BCBCBC"/>
</svg>
