<svg width="16" height="10" viewBox="0 0 16 10" fill="none" xmlns="http://www.w3.org/2000/svg">
<path d="M10.25 5.75L3.06078 5.75L5.53016 8.21984C5.66487 8.36164 5.73886 8.55045 5.73636 8.74602C5.73386 8.94159 5.65505 9.12845 5.51675 9.26675C5.37845 9.40505 5.1916 9.48385 4.99602 9.48636C4.80045 9.48886 4.61164 9.41487 4.46984 9.28015L0.719843 5.53015C0.579297 5.38952 0.500347 5.19882 0.500347 5C0.500347 4.80117 0.579297 4.61048 0.719843 4.46984L4.46984 0.719841C4.61164 0.585126 4.80045 0.511132 4.99602 0.513636C5.1916 0.51614 5.37845 0.594945 5.51675 0.733246C5.65505 0.871547 5.73386 1.0584 5.73636 1.25397C5.73886 1.44954 5.66487 1.63836 5.53016 1.78015L3.06078 4.25L10.25 4.25L14.75 4.25C14.9489 4.25 15.1397 4.32901 15.2803 4.46967C15.421 4.61032 15.5 4.80108 15.5 5C15.5 5.19891 15.421 5.38967 15.2803 5.53033C15.1397 5.67098 14.9489 5.75 14.75 5.75H10.25Z" fill="white"/>
</svg>
