<svg width="21" height="24" viewBox="0 0 21 24" fill="none" xmlns="http://www.w3.org/2000/svg">
<g clip-path="url(#clip0_1_2)">
<path d="M7.5 5.25C7.5 3.59531 8.84531 2.25 10.5 2.25C12.1547 2.25 13.5 3.59531 13.5 5.25V7.5H7.5V5.25ZM5.25 7.5H2.25C1.00781 7.5 0 8.50781 0 9.75V19.5C0 21.9844 2.01562 24 4.5 24H16.5C18.9844 24 21 21.9844 21 19.5V9.75C21 8.50781 19.9922 7.5 18.75 7.5H15.75V5.25C15.75 2.34844 13.4016 0 10.5 0C7.59844 0 5.25 2.34844 5.25 5.25V7.5ZM6.375 12C5.75156 12 5.25 11.4984 5.25 10.875C5.25 10.2516 5.75156 9.75 6.375 9.75C6.99844 9.75 7.5 10.2516 7.5 10.875C7.5 11.4984 6.99844 12 6.375 12ZM15.75 10.875C15.75 11.4984 15.2484 12 14.625 12C14.0016 12 13.5 11.4984 13.5 10.875C13.5 10.2516 14.0016 9.75 14.625 9.75C15.2484 9.75 15.75 10.2516 15.75 10.875Z" fill="#494949"/>
</g>
<defs>
<clipPath id="clip0_1_2">
<rect width="21" height="24" fill="white"/>
</clipPath>
</defs>
</svg>
