<svg width="15" height="10" viewBox="0 0 15 10" fill="none" xmlns="http://www.w3.org/2000/svg">
<path d="M5.25 4.25H12.4392L9.96984 1.78016C9.83513 1.63836 9.76114 1.44955 9.76364 1.25398C9.76614 1.05841 9.84495 0.871552 9.98325 0.73325C10.1215 0.594949 10.3084 0.516146 10.504 0.513642C10.6995 0.511138 10.8884 0.585132 11.0302 0.719847L14.7802 4.46985C14.9207 4.61048 14.9997 4.80118 14.9997 5C14.9997 5.19883 14.9207 5.38952 14.7802 5.53016L11.0302 9.28016C10.8884 9.41487 10.6995 9.48887 10.504 9.48636C10.3084 9.48386 10.1215 9.40506 9.98325 9.26675C9.84495 9.12845 9.76614 8.9416 9.76364 8.74603C9.76114 8.55046 9.83513 8.36164 9.96984 8.21985L12.4392 5.75H5.25H0.75C0.551088 5.75 0.360322 5.67099 0.21967 5.53033C0.0790178 5.38968 0 5.19892 0 5C0 4.80109 0.0790178 4.61033 0.21967 4.46967C0.360322 4.32902 0.551088 4.25 0.75 4.25H5.25Z" fill="white"/>
</svg>
