<svg width="20" height="15" viewBox="0 0 20 15" fill="none" xmlns="http://www.w3.org/2000/svg">
<path d="M7.00014 6.24621H16.5859L13.2934 2.11736C13.1138 1.88031 13.0151 1.56467 13.0184 1.23773C13.0218 0.910798 13.1269 0.598425 13.3113 0.367224C13.4956 0.136025 13.7448 0.00428885 14.0056 0.00010288C14.2663 -0.00408309 14.5182 0.119614 14.7072 0.344818L19.7073 6.61374C19.8947 6.84883 20 7.16763 20 7.5C20 7.83238 19.8947 8.15116 19.7073 8.38627L14.7072 14.6552C14.5182 14.8804 14.2663 15.0041 14.0056 14.9999C13.7448 14.9957 13.4956 14.864 13.3113 14.6328C13.1269 14.4016 13.0218 14.0892 13.0184 13.7623C13.0151 13.4353 13.1138 13.1197 13.2934 12.8827L16.5859 8.75378H7.00014H1.00002C0.734799 8.75378 0.480439 8.6217 0.292899 8.38656C0.105359 8.15143 0 7.83254 0 7.5C0 7.16748 0.105359 6.84858 0.292899 6.61344C0.480439 6.37831 0.734799 6.24621 1.00002 6.24621H7.00014Z" fill="#BCBCBC"/>
</svg>
