<svg width="14" height="13" viewBox="0 0 14 13" fill="none" xmlns="http://www.w3.org/2000/svg">
<path d="M12.9658 5.89473C13.7466 5.32387 13.3428 4.0875 12.3756 4.0875H9.72695C9.29202 4.0875 8.90697 3.80638 8.77448 3.39212L7.95247 0.821908C7.65595 -0.105265 6.34405 -0.105265 6.04753 0.821908L5.22552 3.39212C5.09303 3.80638 4.70798 4.0875 4.27305 4.0875H1.59319C0.62909 4.0875 0.223284 5.31738 0.998064 5.89113L3.19183 7.51571C3.5351 7.76991 3.67901 8.21409 3.55003 8.6213L2.72888 11.2138C2.4361 12.1381 3.49813 12.8964 4.27732 12.3194L6.40488 10.7438C6.75843 10.482 7.24157 10.482 7.59512 10.7438L9.7108 12.3106C10.4911 12.8885 11.5542 12.1272 11.2584 11.2023L10.4258 8.59896C10.2947 8.18901 10.4406 7.74115 10.788 7.48711L12.9658 5.89473Z" fill="#FFCE31"/>
</svg>
