<svg width="24" height="22" viewBox="0 0 24 22" fill="none" xmlns="http://www.w3.org/2000/svg">
<path d="M7.2 0.600006C6.27788 0.599818 5.38401 0.918233 4.66968 1.50136C3.95535 2.08449 3.46442 2.89651 3.28 3.80001H0V5.40001H3.28C3.46361 6.30424 3.95418 7.11719 4.66859 7.70111C5.383 8.28503 6.27732 8.60402 7.2 8.60402C8.12268 8.60402 9.017 8.28503 9.73141 7.70111C10.4458 7.11719 10.9364 6.30424 11.12 5.40001H24V3.80001H11.12C10.9356 2.89651 10.4447 2.08449 9.73032 1.50136C9.01599 0.918233 8.12212 0.599818 7.2 0.600006ZM16.8 13.4C15.8779 13.3998 14.984 13.7182 14.2697 14.3014C13.5553 14.8845 13.0644 15.6965 12.88 16.6H0V18.2H12.88C13.0636 19.1042 13.5542 19.9172 14.2686 20.5011C14.983 21.085 15.8773 21.404 16.8 21.404C17.7227 21.404 18.617 21.085 19.3314 20.5011C20.0458 19.9172 20.5364 19.1042 20.72 18.2H24V16.6H20.72C20.5356 15.6965 20.0447 14.8845 19.3303 14.3014C18.616 13.7182 17.7221 13.3998 16.8 13.4Z" fill="white"/>
</svg>
